<?xml version="1.0" encoding="UTF-8" standalone="no"?>
<svg
   xmlns:dc="http://purl.org/dc/elements/1.1/"
   xmlns:cc="http://creativecommons.org/ns#"
   xmlns:rdf="http://www.w3.org/1999/02/22-rdf-syntax-ns#"
   xmlns:svg="http://www.w3.org/2000/svg"
   xmlns="http://www.w3.org/2000/svg"
   xmlns:sodipodi="http://sodipodi.sourceforge.net/DTD/sodipodi-0.dtd"
   xmlns:inkscape="http://www.inkscape.org/namespaces/inkscape"
   width="156.35356mm"
   height="18.910648mm"
   viewBox="0 0 156.35356 18.910648"
   version="1.1"
   id="svg8"
   inkscape:version="1.0 (4035a4fb49, 2020-05-01)"
   sodipodi:docname="banner.svg">
  <defs
     id="defs2" />
  <sodipodi:namedview
     id="base"
     pagecolor="#ffffff"
     bordercolor="#666666"
     borderopacity="1.0"
     inkscape:pageopacity="0.0"
     inkscape:pageshadow="2"
     inkscape:zoom="1.3422939"
     inkscape:cx="336.59868"
     inkscape:cy="26.233607"
     inkscape:document-units="mm"
     inkscape:current-layer="layer1"
     inkscape:document-rotation="0"
     showgrid="false"
     inkscape:window-width="1366"
     inkscape:window-height="705"
     inkscape:window-x="-8"
     inkscape:window-y="-8"
     inkscape:window-maximized="1"
     fit-margin-top="0"
     fit-margin-left="0"
     fit-margin-right="0"
     fit-margin-bottom="0" />
  <metadata
     id="metadata5">
    <rdf:RDF>
      <cc:Work
         rdf:about="">
        <dc:format>image/svg+xml</dc:format>
        <dc:type
           rdf:resource="http://purl.org/dc/dcmitype/StillImage" />
        <dc:title />
      </cc:Work>
    </rdf:RDF>
  </metadata>
  <g
     inkscape:label="Layer 1"
     inkscape:groupmode="layer"
     id="layer1"
     transform="translate(5.0109998,18.644131)">
    <path
       style="fill:#b3b3b3;stroke:#000000;stroke-width:0.4;stroke-linecap:butt;stroke-linejoin:miter;stroke-miterlimit:4;stroke-dasharray:none;stroke-opacity:1"
       d="M -2.6482163,-4.739 0.12620065,0.06651734 H 22.718908 L 25.471112,-4.739"
       id="path10"
       sodipodi:nodetypes="cccc" />
    <path
       style="fill:#ffe265;fill-opacity:1;stroke:#000000;stroke-width:0.239021px;stroke-linecap:butt;stroke-linejoin:miter;stroke-opacity:1"
       d="m 27.441643,-5.5776537 c -17.6708264,-14.7572963 -32.2415098,0 -32.2415098,0 -2.0553381,1.538209 31.1424018,2.2604213 32.2415098,0 z"
       id="path837"
       sodipodi:nodetypes="ccc" />
    <path
       id="path839-5-5-7-8"
       style="fill:none;stroke:#000000;stroke-width:0.264583px;stroke-linecap:butt;stroke-linejoin:miter;stroke-opacity:1"
       d="m 15.0919,-5.0101185 c 0,0 -1.188175,-1.295006 -2.490392,0.111088 m 4.980783,-0.222177 c 0,0 -1.188175,-1.295006 -2.490391,0.111089 m 4.980783,-0.222177 c 0,0 -1.188176,-1.295006 -2.490392,0.111088 m 4.980783,-0.222177 c 0,0 -1.188175,-1.295006 -2.490391,0.111089 m 4.983205,-0.094893 c 0,0 -1.120512,-1.353976 -2.492814,-0.0162 m 4.973871,-0.226172 c 0,0 -1.254867,-1.230491 -2.481057,0.242372 m -14.947034,0.395524 c 0,0 1.146818,-1.331769 2.492654,0.03263 m -4.9830457,-0.143719 c 0,0 1.1881751,-1.295006 2.4903917,0.111089 m -4.9807828,-0.222177 c 0,0 1.1881752,-1.295006 2.4903911,0.111088 m -4.9807821,-0.222177 c 0,0 1.1881751,-1.295006 2.490391,0.111089 m -4.980782,-0.222177 c 0,0 1.1881751,-1.295006 2.490391,0.111088 m -4.9832057,-0.094892 c 0,0 1.1205129,-1.353977 2.4928147,-0.0162 m -4.9738717,-0.226172 c 0,0 1.2548673,-1.230491 2.481057,0.242372" />
    <path
       style="fill:none;stroke:#000000;stroke-width:0.363812px;stroke-linecap:butt;stroke-linejoin:miter;stroke-opacity:1"
       d="m 11.044208,-11.742652 v 1.254322"
       id="path942" />
    <path
       id="path942-4"
       d="m 10.044906,-11.743 v 1.254322"
       style="fill:none;stroke:#000000;stroke-width:0.363812px;stroke-linecap:butt;stroke-linejoin:miter;stroke-opacity:1" />
    <path
       id="path942-3"
       d="m 12.091094,-11.743 v 1.254322"
       style="fill:none;stroke:#000000;stroke-width:0.363812px;stroke-linecap:butt;stroke-linejoin:miter;stroke-opacity:1" />
    <path
       style="fill:none;stroke:#000000;stroke-width:0.264583px;stroke-linecap:butt;stroke-linejoin:miter;stroke-opacity:1"
       d="m 10.035346,-13.310772 c 0,0 -1.4809103,-0.853701 0,-2.334612 1.480911,-1.48091 -0.2787595,-2.648216 -0.2787595,-2.648216"
       id="path965" />
    <path
       id="path965-5"
       d="m 11.320199,-13.40007 c 0,0 -1.4809099,-0.8537 0,-2.334611 1.480911,-1.480911 -0.278759,-2.648216 -0.278759,-2.648216"
       style="fill:none;stroke:#000000;stroke-width:0.264583px;stroke-linecap:butt;stroke-linejoin:miter;stroke-opacity:1" />
    <path
       id="path965-3"
       d="m 12.818532,-13.40007 c 0,0 -1.48091,-0.853701 0,-2.334612 1.480911,-1.48091 -0.27876,-2.648216 -0.27876,-2.648216"
       style="fill:none;stroke:#000000;stroke-width:0.264583px;stroke-linecap:butt;stroke-linejoin:miter;stroke-opacity:1" />
    <text
       xml:space="preserve"
       style="font-size:14.8938px;line-height:1.25;font-family:sans-serif;stroke-width:0.620575"
       x="29.253727"
       y="-2.5995331"
       id="text990"
       transform="scale(0.89408419,1.1184629)"><tspan
         sodipodi:role="line"
         id="tspan988"
         x="29.253727"
         y="-2.5995331"
         style="font-style:normal;font-variant:normal;font-weight:normal;font-stretch:normal;font-family:Cinzel;-inkscape-font-specification:Cinzel;stroke-width:0.620575">Baking Night</tspan></text>
    <path
       sodipodi:nodetypes="cccc"
       id="path10-4"
       d="m 121.06478,-4.8899917 2.77442,4.80551705 h 22.5927 l 2.75221,-4.80551705"
       style="fill:#b3b3b3;stroke:#000000;stroke-width:0.4;stroke-linecap:butt;stroke-linejoin:miter;stroke-miterlimit:4;stroke-dasharray:none;stroke-opacity:1" />
    <path
       sodipodi:nodetypes="ccc"
       id="path837-4"
       d="m 151.15464,-5.7286457 c -17.67083,-14.7572963 -32.24151,0 -32.24151,0 -2.05534,1.538209 31.1424,2.260422 32.24151,0 z"
       style="fill:#ffe265;fill-opacity:1;stroke:#000000;stroke-width:0.239021px;stroke-linecap:butt;stroke-linejoin:miter;stroke-opacity:1" />
    <path
       d="m 138.8049,-5.1611107 c 0,0 -1.18818,-1.295005 -2.4904,0.111089 m 4.98079,-0.222177 c 0,0 -1.18818,-1.2950058 -2.49039,0.111088 m 4.98078,-0.222177 c 0,0 -1.18818,-1.2950058 -2.49039,0.111089 m 4.98078,-0.222178 c 0,0 -1.18818,-1.2950058 -2.49039,0.111089 m 4.9832,-0.09489 c 0,0 -1.12051,-1.3539768 -2.49281,-0.0162 m 4.97387,-0.226172 c 0,0 -1.25487,-1.2304908 -2.48106,0.242372 m -14.94703,0.395524 c 0,0 1.14682,-1.331769 2.49265,0.03263 m -4.98304,-0.143718 c 0,0 1.18817,-1.295006 2.49039,0.111089 m -4.98078,-0.222178 c 0,0 1.18817,-1.2950058 2.49039,0.111089 m -4.98078,-0.222181 c 0,0 1.18817,-1.2950048 2.49039,0.111089 m -4.98079,-0.222177 c 0,0 1.18818,-1.2950058 2.4904,0.111088 m -4.98321,-0.09489 c 0,0 1.12051,-1.3539778 2.49281,-0.0162 m -4.97387,-0.226174 c 0,0 1.25487,-1.2304908 2.48106,0.242373"
       style="fill:none;stroke:#000000;stroke-width:0.264583px;stroke-linecap:butt;stroke-linejoin:miter;stroke-opacity:1"
       id="path839-5-5-7-8-2" />
    <path
       id="path942-9"
       d="m 134.7572,-11.893644 v 1.254322"
       style="fill:none;stroke:#000000;stroke-width:0.363813px;stroke-linecap:butt;stroke-linejoin:miter;stroke-opacity:1" />
    <path
       style="fill:none;stroke:#000000;stroke-width:0.363813px;stroke-linecap:butt;stroke-linejoin:miter;stroke-opacity:1"
       d="m 133.7579,-11.893992 v 1.254323"
       id="path942-4-6" />
    <path
       style="fill:none;stroke:#000000;stroke-width:0.363813px;stroke-linecap:butt;stroke-linejoin:miter;stroke-opacity:1"
       d="m 135.80409,-11.893992 v 1.254323"
       id="path942-3-1" />
    <path
       id="path965-51"
       d="m 133.74834,-13.461764 c 0,0 -1.48091,-0.853701 0,-2.334612 1.48091,-1.48091 -0.27876,-2.648216 -0.27876,-2.648216"
       style="fill:none;stroke:#000000;stroke-width:0.264583px;stroke-linecap:butt;stroke-linejoin:miter;stroke-opacity:1" />
    <path
       style="fill:none;stroke:#000000;stroke-width:0.264583px;stroke-linecap:butt;stroke-linejoin:miter;stroke-opacity:1"
       d="m 135.03319,-13.551062 c 0,0 -1.48091,-0.8537 0,-2.334611 1.48092,-1.480911 -0.27875,-2.648216 -0.27875,-2.648216"
       id="path965-5-3" />
    <path
       style="fill:none;stroke:#000000;stroke-width:0.264583px;stroke-linecap:butt;stroke-linejoin:miter;stroke-opacity:1"
       d="m 136.53153,-13.551062 c 0,0 -1.48091,-0.853701 0,-2.334612 1.48091,-1.48091 -0.27876,-2.648216 -0.27876,-2.648216"
       id="path965-3-5" />
  </g>
</svg>
