<?xml version="1.0" encoding="UTF-8" standalone="no"?>
<svg
   xmlns:dc="http://purl.org/dc/elements/1.1/"
   xmlns:cc="http://creativecommons.org/ns#"
   xmlns:rdf="http://www.w3.org/1999/02/22-rdf-syntax-ns#"
   xmlns:svg="http://www.w3.org/2000/svg"
   xmlns="http://www.w3.org/2000/svg"
   xmlns:sodipodi="http://sodipodi.sourceforge.net/DTD/sodipodi-0.dtd"
   xmlns:inkscape="http://www.inkscape.org/namespaces/inkscape"
   sodipodi:docname="banner.svg"
   inkscape:version="1.0 (4035a4fb49, 2020-05-01)"
   id="svg8"
   version="1.1"
   viewBox="0 0 156.35356 18.910648"
   height="18.910648mm"
   width="156.35356mm">
  <defs
     id="defs2" />
  <sodipodi:namedview
     fit-margin-bottom="0"
     fit-margin-right="0"
     fit-margin-left="0"
     fit-margin-top="0"
     inkscape:window-maximized="1"
     inkscape:window-y="-8"
     inkscape:window-x="-8"
     inkscape:window-height="705"
     inkscape:window-width="1366"
     showgrid="false"
     inkscape:document-rotation="0"
     inkscape:current-layer="layer1"
     inkscape:document-units="mm"
     inkscape:cy="26.233607"
     inkscape:cx="336.59868"
     inkscape:zoom="1.2869664"
     inkscape:pageshadow="2"
     inkscape:pageopacity="0.0"
     borderopacity="1.0"
     bordercolor="#666666"
     pagecolor="#ffffff"
     id="base" />
  <metadata
     id="metadata5">
    <rdf:RDF>
      <cc:Work
         rdf:about="">
        <dc:format>image/svg+xml</dc:format>
        <dc:type
           rdf:resource="http://purl.org/dc/dcmitype/StillImage" />
        <dc:title />
      </cc:Work>
    </rdf:RDF>
  </metadata>
  <g
     transform="translate(5.0109998,18.644131)"
     id="layer1"
     inkscape:groupmode="layer"
     inkscape:label="Layer 1">
    <path
       sodipodi:nodetypes="cccc"
       id="path10"
       d="M -2.6482163,-4.739 0.12620065,0.06651734 H 22.718908 L 25.471112,-4.739"
       style="fill:#b3b3b3;stroke:#000000;stroke-width:0.4;stroke-linecap:butt;stroke-linejoin:miter;stroke-miterlimit:4;stroke-dasharray:none;stroke-opacity:1" />
    <path
       sodipodi:nodetypes="ccc"
       id="path837"
       d="m 27.441643,-5.5776537 c -17.6708264,-14.7572963 -32.2415098,0 -32.2415098,0 -2.0553381,1.538209 31.1424018,2.2604213 32.2415098,0 z"
       style="fill:#ffe265;fill-opacity:1;stroke:#000000;stroke-width:0.239021px;stroke-linecap:butt;stroke-linejoin:miter;stroke-opacity:1" />
    <path
       d="m 15.0919,-5.0101185 c 0,0 -1.188175,-1.295006 -2.490392,0.111088 m 4.980783,-0.222177 c 0,0 -1.188175,-1.295006 -2.490391,0.111089 m 4.980783,-0.222177 c 0,0 -1.188176,-1.295006 -2.490392,0.111088 m 4.980783,-0.222177 c 0,0 -1.188175,-1.295006 -2.490391,0.111089 m 4.983205,-0.094893 c 0,0 -1.120512,-1.353976 -2.492814,-0.0162 m 4.973871,-0.226172 c 0,0 -1.254867,-1.230491 -2.481057,0.242372 m -14.947034,0.395524 c 0,0 1.146818,-1.331769 2.492654,0.03263 m -4.9830457,-0.143719 c 0,0 1.1881751,-1.295006 2.4903917,0.111089 m -4.9807828,-0.222177 c 0,0 1.1881752,-1.295006 2.4903911,0.111088 m -4.9807821,-0.222177 c 0,0 1.1881751,-1.295006 2.490391,0.111089 m -4.980782,-0.222177 c 0,0 1.1881751,-1.295006 2.490391,0.111088 m -4.9832057,-0.094892 c 0,0 1.1205129,-1.353977 2.4928147,-0.0162 m -4.9738717,-0.226172 c 0,0 1.2548673,-1.230491 2.481057,0.242372"
       style="fill:none;stroke:#000000;stroke-width:0.264583px;stroke-linecap:butt;stroke-linejoin:miter;stroke-opacity:1"
       id="path839-5-5-7-8" />
    <path
       id="path942"
       d="m 11.044208,-11.742652 v 1.254322"
       style="fill:none;stroke:#000000;stroke-width:0.363812px;stroke-linecap:butt;stroke-linejoin:miter;stroke-opacity:1" />
    <path
       style="fill:none;stroke:#000000;stroke-width:0.363812px;stroke-linecap:butt;stroke-linejoin:miter;stroke-opacity:1"
       d="m 10.044906,-11.743 v 1.254322"
       id="path942-4" />
    <path
       style="fill:none;stroke:#000000;stroke-width:0.363812px;stroke-linecap:butt;stroke-linejoin:miter;stroke-opacity:1"
       d="m 12.091094,-11.743 v 1.254322"
       id="path942-3" />
    <path
       id="path965"
       d="m 10.035346,-13.310772 c 0,0 -1.4809103,-0.853701 0,-2.334612 1.480911,-1.48091 -0.2787595,-2.648216 -0.2787595,-2.648216"
       style="fill:none;stroke:#000000;stroke-width:0.264583px;stroke-linecap:butt;stroke-linejoin:miter;stroke-opacity:1" />
    <path
       style="fill:none;stroke:#000000;stroke-width:0.264583px;stroke-linecap:butt;stroke-linejoin:miter;stroke-opacity:1"
       d="m 11.320199,-13.40007 c 0,0 -1.4809099,-0.8537 0,-2.334611 1.480911,-1.480911 -0.278759,-2.648216 -0.278759,-2.648216"
       id="path965-5" />
    <path
       style="fill:none;stroke:#000000;stroke-width:0.264583px;stroke-linecap:butt;stroke-linejoin:miter;stroke-opacity:1"
       d="m 12.818532,-13.40007 c 0,0 -1.48091,-0.853701 0,-2.334612 1.480911,-1.48091 -0.27876,-2.648216 -0.27876,-2.648216"
       id="path965-3" />
    <g
       style="font-size:14.8938px;line-height:1.25;font-family:sans-serif;stroke-width:0.620575"
       id="text990"
       transform="scale(0.89408419,1.1184629)"
       aria-label="Baking Night">
      <path
         id="path27"
         style="font-style:normal;font-variant:normal;font-weight:normal;font-stretch:normal;font-family:Cinzel;-inkscape-font-specification:Cinzel;stroke-width:0.620575"
         d="m 31.532478,-13.025193 h 1.578743 q 1.042566,0 1.757468,0.31277 0.729797,0.31277 1.102142,0.878734 0.372345,0.551071 0.372345,1.295761 0,0.6255392 -0.238301,1.1021408 -0.238301,0.4617078 -0.610646,0.7595838 -0.372345,0.2829822 -0.789371,0.4021326 0.789371,0.1191504 1.355335,0.521283 0.580859,0.4021326 0.878735,1.0127784 0.312769,0.595752 0.312769,1.340442 0,0.8340527 -0.402132,1.4744861 -0.402133,0.6255396 -1.191504,0.9829908 -0.774478,0.3425574 -1.876619,0.3425574 H 32.12823 q 0,0 0,-0.1340442 0.01489,-0.1340442 0.01489,-0.2680884 0,-0.1340442 0,-0.1340442 h 1.578743 q 0.774477,0 1.310654,-0.2680884 0.536177,-0.2829822 0.819159,-0.819159 0.282982,-0.5361767 0.282982,-1.2808667 0,-0.8340528 -0.327663,-1.3553358 -0.31277,-0.521283 -0.819159,-0.7893714 Q 34.481451,-7.9166196 33.885699,-8.0059824 33.30484,-8.110239 32.768664,-8.110239 v -0.1340442 q 0.342557,0 0.759583,-0.074469 0.417027,-0.074469 0.804266,-0.297876 0.387238,-0.223407 0.640433,-0.6553272 0.253195,-0.446814 0.253195,-1.1617166 0,-0.670221 -0.253195,-1.146822 -0.238301,-0.476602 -0.729796,-0.714903 -0.476602,-0.253194 -1.191504,-0.253194 h -1.37023 q 0,-0.01489 -0.04468,-0.119151 -0.02979,-0.11915 -0.07447,-0.238301 -0.02979,-0.11915 -0.02979,-0.11915 z m 0.729797,0 V -2.5995331 H 31.294178 V -13.025193 Z m -0.923416,9.3384125 v 1.0872474 h -1.191504 l 0.01489,-0.148938 q 0.02979,0 0.08936,0 0.07447,0 0.08936,0 0.387239,0 0.670221,-0.2680884 0.282983,-0.2829822 0.282983,-0.670221 z m 0,-8.2511655 h -0.04468 q 0,-0.387238 -0.282983,-0.655327 -0.282982,-0.282982 -0.670221,-0.282982 -0.01489,0 -0.08936,0 -0.05958,0 -0.08936,0 l -0.01489,-0.148938 h 1.191504 z" />
      <path
         id="path29"
         style="font-style:normal;font-variant:normal;font-weight:normal;font-stretch:normal;font-family:Cinzel;-inkscape-font-specification:Cinzel;stroke-width:0.620575"
         d="m 42.752164,-11.744326 4.095795,9.0554301 h -1.17661 L 42.49897,-10.418778 Z m -2.874503,8.0575455 q -0.163832,0.446814 0.04468,0.7000086 0.208514,0.2383008 0.476602,0.2383008 h 0.11915 v 0.148938 h -2.844715 v -0.148938 q 0,0 0.05958,0 0.05958,0 0.05958,0 0.31277,0 0.640433,-0.2085132 0.327664,-0.223407 0.565965,-0.7297962 z m 2.874503,-8.0575455 0.104257,1.027672 -3.41068,8.0724395 h -0.93831 l 3.529831,-7.5660505 q 0,0 0.07447,-0.178725 0.08936,-0.178726 0.193619,-0.431921 0.119151,-0.268088 0.208513,-0.521283 0.08936,-0.253194 0.104257,-0.402132 z m 1.757469,5.6745376 v 0.446814 h -3.946857 v -0.446814 z m 0.759583,2.3830079 h 1.131929 q 0.223407,0.5063892 0.551071,0.7297962 0.327663,0.2085132 0.625539,0.2085132 0,0 0.05958,0 0.05957,0 0.05957,0 v 0.148938 h -3.053229 v -0.148938 h 0.11915 q 0.253195,0 0.461708,-0.2383008 0.208513,-0.2531946 0.04468,-0.7000086 z" />
      <path
         id="path31"
         style="font-style:normal;font-variant:normal;font-weight:normal;font-stretch:normal;font-family:Cinzel;-inkscape-font-specification:Cinzel;stroke-width:0.620575"
         d="m 51.794331,-7.588956 3.887281,4.2298391 q 0.253195,0.297876 0.536177,0.446814 0.282982,0.148938 0.759584,0.1638318 v 0.148938 h -0.551071 q -0.178725,0 -0.446814,-0.014894 -0.253194,-0.029788 -0.565964,-0.1042566 -0.297876,-0.089363 -0.610646,-0.2531946 -0.297876,-0.1787256 -0.565964,-0.4766016 0,0 -0.238301,-0.2531946 -0.223407,-0.2680884 -0.595752,-0.670221 -0.372345,-0.4170263 -0.804265,-0.8638403 -0.417027,-0.4617078 -0.789372,-0.8638404 -0.372345,-0.4170264 -0.610645,-0.670221 -0.238301,-0.2680884 -0.238301,-0.2680884 z m 3.976644,-3.8426 -4.110689,4.3936706 h -0.700008 l 3.738344,-4.3936706 z m 0.968097,-0.104257 v 0.148938 h -0.05958 q -0.461708,0 -0.86384,0.148938 -0.387239,0.148938 -0.640434,0.446814 l -1.012778,-0.01489 q 0.163832,-0.208513 0.04468,-0.387239 -0.104256,-0.193619 -0.372345,-0.193619 h -0.134044 v -0.148938 h 2.97876 z m -6.300077,0 v 8.9362799 h -0.953203 v -8.9362799 z m -0.923416,7.9830767 v 0.9532032 h -1.087247 v -0.148938 q 0,0 0.08936,0 0.08936,0 0.08936,0 0.357452,0 0.610646,-0.2383008 0.253195,-0.2383008 0.268089,-0.5659644 z m 0.878734,0 h 0.04468 q 0,0.3276636 0.253194,0.5659644 0.253195,0.2383008 0.62554,0.2383008 0,0 0.07447,0 0.08936,0 0.08936,0 v 0.148938 h -1.087248 z m 0,-7.0298737 v -0.953203 h 1.087248 v 0.148938 q 0,0 -0.08936,0 -0.07447,0 -0.08936,0 -0.357451,0 -0.610646,0.238301 -0.253194,0.223407 -0.253194,0.565964 z m -0.878734,0 h -0.02979 q -0.01489,-0.342557 -0.268089,-0.565964 -0.253194,-0.238301 -0.610646,-0.238301 0,0 -0.08936,0 -0.08936,0 -0.08936,0 v -0.148938 h 1.087247 z" />
      <path
         id="path33"
         style="font-style:normal;font-variant:normal;font-weight:normal;font-stretch:normal;font-family:Cinzel;-inkscape-font-specification:Cinzel;stroke-width:0.620575"
         d="m 59.867466,-11.535813 v 8.9362799 h -0.938309 v -8.9362799 z m -0.893628,7.9830767 v 0.9532032 h -1.265973 v -0.148938 q 0,0 0.104257,0 0.104256,0 0.104256,0 0.417027,0 0.700009,-0.2383008 0.297876,-0.2383008 0.31277,-0.5659644 z m 0.848947,0 h 0.04468 q 0.01489,0.3276636 0.297876,0.5659644 0.297876,0.2383008 0.714903,0.2383008 0,0 0.08936,0 0.104257,0 0.104257,0 l 0.01489,0.148938 h -1.265973 z m 0,-7.0298737 v -0.953203 h 1.265973 l -0.01489,0.148938 q 0,0 -0.104257,0 -0.08936,0 -0.08936,0 -0.417027,0 -0.714903,0.238301 -0.282982,0.223407 -0.297876,0.565964 z m -0.848947,0 h -0.04468 q -0.01489,-0.342557 -0.31277,-0.565964 -0.282982,-0.238301 -0.700009,-0.238301 -0.01489,0 -0.11915,0 -0.08936,0 -0.08936,0 v -0.148938 h 1.265973 z" />
      <path
         id="path35"
         style="font-style:normal;font-variant:normal;font-weight:normal;font-stretch:normal;font-family:Cinzel;-inkscape-font-specification:Cinzel;stroke-width:0.620575"
         d="m 63.500624,-11.75922 8.251165,7.7745635 0.148938,1.5936366 -8.251165,-7.8192451 z m 0.02979,8.2362713 v 0.9234156 h -1.117035 v -0.148938 q 0,0 0.11915,0 0.134044,0 0.134044,0 0.342558,0 0.580858,-0.223407 0.238301,-0.223407 0.238301,-0.5510706 z m 0.625539,0 q 0,0.3276636 0.238301,0.5510706 0.253195,0.223407 0.580858,0.223407 0,0 0.119151,0 0.134044,0 0.134044,0 v 0.148938 H 64.11127 v -0.9234156 z m -0.655327,-8.2362713 0.640433,0.834053 0.01489,8.3256339 H 63.48573 V -9.897495 q 0,-0.759584 -0.07447,-1.310654 -0.05958,-0.551071 -0.05958,-0.551071 z m 8.400103,0.223407 v 7.2383867 q 0,0.4766016 0.02979,0.9234156 0.02979,0.4319202 0.05957,0.7149024 0.04468,0.2680884 0.04468,0.2680884 H 71.900727 L 71.2454,-3.1803913 v -8.3554217 z m -0.04468,0.923416 v -0.923416 h 1.117035 v 0.148938 q 0,0 -0.134045,0 -0.11915,0 -0.11915,0 -0.327663,0 -0.580858,0.223407 -0.238301,0.223407 -0.238301,0.551071 z m -0.610646,0 q -0.01489,-0.327664 -0.253195,-0.551071 -0.2383,-0.223407 -0.580858,-0.223407 0,0 -0.134044,0 -0.11915,0 -0.11915,0 v -0.148938 h 1.117035 v 0.923416 z" />
      <path
         id="path37"
         style="font-style:normal;font-variant:normal;font-weight:normal;font-stretch:normal;font-family:Cinzel;-inkscape-font-specification:Cinzel;stroke-width:0.620575"
         d="m 79.041374,-11.744326 q 0.685115,0 1.280867,0.104256 0.610646,0.08936 1.146823,0.297876 0.55107,0.19362 1.042566,0.50639 l 0.327663,2.1000254 h -0.134044 q -0.208513,-0.8787342 -0.685115,-1.4446984 -0.461707,-0.565965 -1.206397,-0.834053 -0.74469,-0.282982 -1.787256,-0.282982 -1.131929,0 -1.99577,0.521283 -0.848946,0.506389 -1.325548,1.4595922 -0.476601,0.9383094 -0.476601,2.2489638 0,1.2957606 0.476601,2.2489638 0.476602,0.9532031 1.340442,1.4744861 0.863841,0.5063892 1.995769,0.5063892 0.62554,0 1.191504,-0.1340442 0.565965,-0.1340442 1.087248,-0.4170264 0.536177,-0.297876 0.997884,-0.74469 l 0.01489,-1.9808753 q 0.01489,-0.2829822 -0.178725,-0.4319202 -0.178726,-0.148938 -0.50639,-0.148938 h -0.208513 v -0.148938 h 2.725566 v 0.148938 h -0.208514 q -0.670221,0 -0.670221,0.595752 v 1.7872559 q -0.342557,0.4319202 -0.938309,0.8787342 -0.595752,0.446814 -1.429805,0.74469 -0.819159,0.297876 -1.876619,0.297876 -1.474486,-0.014894 -2.576627,-0.5808582 -1.087247,-0.5659644 -1.697893,-1.6085304 -0.610646,-1.0425659 -0.610646,-2.4872645 0,-1.4595924 0.610646,-2.5021584 0.610646,-1.0425656 1.712787,-1.6085306 1.102141,-0.565964 2.561733,-0.565964 z" />
      <path
         id="path39"
         style="font-style:normal;font-variant:normal;font-weight:normal;font-stretch:normal;font-family:Cinzel;-inkscape-font-specification:Cinzel;stroke-width:0.620575"
         d="m 90.065576,-13.2486 8.653298,9.2341559 0.134044,1.6234242 -8.653298,-9.2192621 z m 0.02979,9.5916071 v 1.0574598 h -1.236186 v -0.148938 q 0,0 0.134044,0 0.134045,0 0.148938,0 0.372345,0 0.640434,-0.2680884 0.268088,-0.2680884 0.268088,-0.6404334 z m 0.640433,0 q 0,0.372345 0.268088,0.6404334 0.268089,0.2680884 0.640434,0.2680884 0.01489,0 0.148938,0 0.134044,0 0.134044,0 v 0.148938 h -1.236185 v -1.0574598 z m -0.670221,-9.5916071 0.655327,0.834053 0.01489,9.8150139 h -0.685115 v -8.7873419 q 0,-0.759584 -0.07447,-1.310654 -0.05957,-0.551071 -0.05957,-0.551071 z m 8.787342,0.223407 v 8.7277667 q 0,0.4766016 0.02979,0.9234156 0.02979,0.4319202 0.05958,0.7149024 0.04468,0.2680884 0.04468,0.2680884 h -0.134044 l -0.670221,-0.7893714 v -9.8448017 z m 1.191502,0 v 0.148938 q 0,0 -0.134042,0 -0.134045,0 -0.134045,0 -0.372345,0 -0.640433,0.268088 -0.268088,0.253195 -0.282982,0.640434 h -0.04468 v -1.05746 z m -3.068121,0 h 1.236185 v 1.05746 h -0.02979 q -0.01489,-0.387239 -0.282982,-0.640434 -0.253195,-0.268088 -0.640434,-0.268088 0,0 -0.134044,0 -0.134044,0 -0.148938,0 z" />
      <path
         id="path41"
         style="font-style:normal;font-variant:normal;font-weight:normal;font-stretch:normal;font-family:Cinzel;-inkscape-font-specification:Cinzel;stroke-width:0.620575"
         d="m 103.55983,-11.535813 v 8.9362799 h -0.93831 v -8.9362799 z m -0.89363,7.9830767 v 0.9532032 h -1.26597 v -0.148938 q 0,0 0.10425,0 0.10426,0 0.10426,0 0.41702,0 0.70001,-0.2383008 0.29787,-0.2383008 0.31277,-0.5659644 z m 0.84894,0 h 0.0447 q 0.0149,0.3276636 0.29787,0.5659644 0.29788,0.2383008 0.7149,0.2383008 0,0 0.0894,0 0.10425,0 0.10425,0 l 0.0149,0.148938 h -1.26598 z m 0,-7.0298737 v -0.953203 h 1.26598 l -0.0149,0.148938 q 0,0 -0.10425,0 -0.0894,0 -0.0894,0 -0.41702,0 -0.7149,0.238301 -0.28298,0.223407 -0.29787,0.565964 z m -0.84894,0 h -0.0447 q -0.0149,-0.342557 -0.31277,-0.565964 -0.28299,-0.238301 -0.70001,-0.238301 -0.0149,0 -0.11915,0 -0.0894,0 -0.0894,0 v -0.148938 h 1.26597 z" />
      <path
         id="path43"
         style="font-style:normal;font-variant:normal;font-weight:normal;font-stretch:normal;font-family:Cinzel;-inkscape-font-specification:Cinzel;stroke-width:0.620575"
         d="m 110.98159,-11.744326 q 0.68512,0 1.28087,0.104256 0.61064,0.08936 1.14682,0.297876 0.55107,0.19362 1.04257,0.50639 l 0.32766,2.1000254 h -0.13404 q -0.20852,-0.8787342 -0.68512,-1.4446984 -0.46171,-0.565965 -1.2064,-0.834053 -0.74469,-0.282982 -1.78725,-0.282982 -1.13193,0 -1.99577,0.521283 -0.84895,0.506389 -1.32555,1.4595922 -0.4766,0.9383094 -0.4766,2.2489638 0,1.2957606 0.4766,2.2489638 0.4766,0.9532031 1.34044,1.4744861 0.86384,0.5063892 1.99577,0.5063892 0.62554,0 1.1915,-0.1340442 0.56597,-0.1340442 1.08725,-0.4170264 0.53618,-0.297876 0.99789,-0.74469 l 0.0149,-1.9808753 q 0.0149,-0.2829822 -0.17873,-0.4319202 -0.17872,-0.148938 -0.50638,-0.148938 h -0.20852 v -0.148938 h 2.72557 v 0.148938 h -0.20852 q -0.67022,0 -0.67022,0.595752 v 1.7872559 q -0.34255,0.4319202 -0.93831,0.8787342 -0.59575,0.446814 -1.4298,0.74469 -0.81916,0.297876 -1.87662,0.297876 -1.47449,-0.014894 -2.57663,-0.5808582 -1.08724,-0.5659644 -1.69789,-1.6085304 -0.61065,-1.0425659 -0.61065,-2.4872645 0,-1.4595924 0.61065,-2.5021584 0.61065,-1.0425656 1.71279,-1.6085306 1.10214,-0.565964 2.56173,-0.565964 z" />
      <path
         id="path45"
         style="font-style:normal;font-variant:normal;font-weight:normal;font-stretch:normal;font-family:Cinzel;-inkscape-font-specification:Cinzel;stroke-width:0.620575"
         d="m 125.43696,-11.535813 v 8.9362799 h -0.9532 v -8.9362799 z m -6.44902,0 v 8.9362799 h -0.9532 v -8.9362799 z m 5.64475,4.3043082 v 0.446814 h -5.80858 v -0.446814 z m -6.55327,3.6787685 v 0.9532032 h -1.08725 v -0.148938 q 0,0 0.0894,0 0.0894,0 0.0894,0 0.35745,0 0.59575,-0.2383008 0.2532,-0.2383008 0.26809,-0.5659644 z m 0.86384,0 h 0.0447 q 0,0.3276636 0.2532,0.5659644 0.25319,0.2383008 0.61064,0.2383008 0,0 0.0894,0 0.0894,0 0.0894,0 v 0.148938 h -1.08725 z m 0,-7.0298737 v -0.953203 h 1.08725 v 0.148938 q 0,0 -0.0894,0 -0.0894,0 -0.0894,0 -0.35745,0 -0.61064,0.238301 -0.2532,0.223407 -0.2532,0.565964 z m -0.86384,0 h -0.0447 q -0.0149,-0.342557 -0.26809,-0.565964 -0.2383,-0.238301 -0.59575,-0.238301 0,0 -0.0894,0 -0.0894,0 -0.0894,0 v -0.148938 h 1.08725 z m 6.44902,7.0298737 v 0.9532032 h -1.08725 v -0.148938 q 0,0 0.0894,0 0.0894,0 0.0894,0 0.35745,0 0.59575,-0.2383008 0.25319,-0.2383008 0.26809,-0.5659644 z m 0.86384,0 h 0.0447 q 0.0149,0.3276636 0.25319,0.5659644 0.2532,0.2383008 0.61065,0.2383008 0,0 0.0894,0 0.0894,0 0.0894,0 v 0.148938 h -1.08725 z m 0,-7.0298737 v -0.953203 h 1.08725 v 0.148938 q 0,0 -0.0894,0 -0.0894,0 -0.0894,0 -0.35745,0 -0.61065,0.238301 -0.2383,0.223407 -0.25319,0.565964 z m -0.86384,0 h -0.0447 q -0.0149,-0.342557 -0.26809,-0.565964 -0.2383,-0.238301 -0.59575,-0.238301 0,0 -0.0894,0 -0.0894,0 -0.0894,0 v -0.148938 h 1.08725 z" />
      <path
         id="path47"
         style="font-style:normal;font-variant:normal;font-weight:normal;font-stretch:normal;font-family:Cinzel;-inkscape-font-specification:Cinzel;stroke-width:0.620575"
         d="m 132.08099,-11.491132 v 8.8915989 h -0.9681 v -8.8915989 z m 3.6043,-0.05957 v 0.446814 h -8.1767 v -0.446814 z m 0,0.417027 v 1.027672 h -0.16384 v -0.238301 q 0,-0.31277 -0.20851,-0.521283 -0.19362,-0.223407 -0.53618,-0.238301 v -0.02979 z m 0,-0.655328 v 0.387239 l -1.66811,-0.148938 q 0.29788,0 0.62554,-0.02979 0.34256,-0.04468 0.62554,-0.104257 0.28298,-0.05957 0.41703,-0.104257 z m -4.54261,8.2362717 v 0.9532032 h -1.08725 v -0.148938 q 0.0149,0 0.0894,0 0.0894,0 0.0894,0 0.35745,0 0.61064,-0.2383008 0.2532,-0.2383008 0.26809,-0.5659644 z m 0.89363,0 h 0.0447 q 0.0149,0.3276636 0.26808,0.5659644 0.2532,0.2383008 0.61065,0.2383008 0,0 0.0745,0 0.0894,0 0.0894,0 v 0.148938 h -1.08724 z m -3.6192,-7.5809437 v 0.02979 q -0.34256,0.01489 -0.55107,0.238301 -0.19362,0.208513 -0.19362,0.521283 v 0.238301 h -0.16383 v -1.027672 z m -0.90852,-0.655328 q 0.13404,0.04468 0.40213,0.104257 0.28298,0.05958 0.62554,0.104257 0.34256,0.02979 0.64044,0.02979 l -1.66811,0.148938 z" />
    </g>
    <path
       style="fill:#b3b3b3;stroke:#000000;stroke-width:0.4;stroke-linecap:butt;stroke-linejoin:miter;stroke-miterlimit:4;stroke-dasharray:none;stroke-opacity:1"
       d="m 121.06478,-4.8899917 2.77442,4.80551705 h 22.5927 l 2.75221,-4.80551705"
       id="path10-4"
       sodipodi:nodetypes="cccc" />
    <path
       style="fill:#ffe265;fill-opacity:1;stroke:#000000;stroke-width:0.239021px;stroke-linecap:butt;stroke-linejoin:miter;stroke-opacity:1"
       d="m 151.15464,-5.7286457 c -17.67083,-14.7572963 -32.24151,0 -32.24151,0 -2.05534,1.538209 31.1424,2.260422 32.24151,0 z"
       id="path837-4"
       sodipodi:nodetypes="ccc" />
    <path
       id="path839-5-5-7-8-2"
       style="fill:none;stroke:#000000;stroke-width:0.264583px;stroke-linecap:butt;stroke-linejoin:miter;stroke-opacity:1"
       d="m 138.8049,-5.1611107 c 0,0 -1.18818,-1.295005 -2.4904,0.111089 m 4.98079,-0.222177 c 0,0 -1.18818,-1.2950058 -2.49039,0.111088 m 4.98078,-0.222177 c 0,0 -1.18818,-1.2950058 -2.49039,0.111089 m 4.98078,-0.222178 c 0,0 -1.18818,-1.2950058 -2.49039,0.111089 m 4.9832,-0.09489 c 0,0 -1.12051,-1.3539768 -2.49281,-0.0162 m 4.97387,-0.226172 c 0,0 -1.25487,-1.2304908 -2.48106,0.242372 m -14.94703,0.395524 c 0,0 1.14682,-1.331769 2.49265,0.03263 m -4.98304,-0.143718 c 0,0 1.18817,-1.295006 2.49039,0.111089 m -4.98078,-0.222178 c 0,0 1.18817,-1.2950058 2.49039,0.111089 m -4.98078,-0.222181 c 0,0 1.18817,-1.2950048 2.49039,0.111089 m -4.98079,-0.222177 c 0,0 1.18818,-1.2950058 2.4904,0.111088 m -4.98321,-0.09489 c 0,0 1.12051,-1.3539778 2.49281,-0.0162 m -4.97387,-0.226174 c 0,0 1.25487,-1.2304908 2.48106,0.242373" />
    <path
       style="fill:none;stroke:#000000;stroke-width:0.363813px;stroke-linecap:butt;stroke-linejoin:miter;stroke-opacity:1"
       d="m 134.7572,-11.893644 v 1.254322"
       id="path942-9" />
    <path
       id="path942-4-6"
       d="m 133.7579,-11.893992 v 1.254323"
       style="fill:none;stroke:#000000;stroke-width:0.363813px;stroke-linecap:butt;stroke-linejoin:miter;stroke-opacity:1" />
    <path
       id="path942-3-1"
       d="m 135.80409,-11.893992 v 1.254323"
       style="fill:none;stroke:#000000;stroke-width:0.363813px;stroke-linecap:butt;stroke-linejoin:miter;stroke-opacity:1" />
    <path
       style="fill:none;stroke:#000000;stroke-width:0.264583px;stroke-linecap:butt;stroke-linejoin:miter;stroke-opacity:1"
       d="m 133.74834,-13.461764 c 0,0 -1.48091,-0.853701 0,-2.334612 1.48091,-1.48091 -0.27876,-2.648216 -0.27876,-2.648216"
       id="path965-51" />
    <path
       id="path965-5-3"
       d="m 135.03319,-13.551062 c 0,0 -1.48091,-0.8537 0,-2.334611 1.48092,-1.480911 -0.27875,-2.648216 -0.27875,-2.648216"
       style="fill:none;stroke:#000000;stroke-width:0.264583px;stroke-linecap:butt;stroke-linejoin:miter;stroke-opacity:1" />
    <path
       id="path965-3-5"
       d="m 136.53153,-13.551062 c 0,0 -1.48091,-0.853701 0,-2.334612 1.48091,-1.48091 -0.27876,-2.648216 -0.27876,-2.648216"
       style="fill:none;stroke:#000000;stroke-width:0.264583px;stroke-linecap:butt;stroke-linejoin:miter;stroke-opacity:1" />
  </g>
</svg>
